<svg width="288" height="292" viewBox="0 0 288 292" fill="none" xmlns="http://www.w3.org/2000/svg">
<path d="M1 77.5C1 73.9 1 21.8333 1 1H160.5M40 130V188L103.5 291H286.5V188M40 130H1V105.5M40 130H148.5M160.5 1H286.5V188M160.5 1V77.5M286.5 188H148.5" stroke="black" stroke-width="2"/>
<path d="M57.83 51.9H60.89V54.09H57.83V60.03H55.34V54.09H45.89L45.59 51.9L55.43 38.31H57.83V51.9ZM55.34 51.9V42.6L48.62 51.9H55.34Z" fill="black"/>
<path d="M238.21 48.33C238.85 47.61 239.68 47.02 240.7 46.56C241.72 46.08 242.72 45.84 243.7 45.84C245.14 45.84 246.42 46.15 247.54 46.77C248.68 47.37 249.56 48.21 250.18 49.29C250.82 50.37 251.14 51.61 251.14 53.01C251.14 54.43 250.82 55.69 250.18 56.79C249.56 57.89 248.68 58.76 247.54 59.4C246.42 60.02 245.14 60.33 243.7 60.33C242.58 60.33 241.53 60.1 240.55 59.64C239.57 59.16 238.73 58.5 238.03 57.66C237.33 56.82 236.86 55.87 236.62 54.81L239.05 54.24C239.29 55.34 239.84 56.24 240.7 56.94C241.58 57.62 242.58 57.96 243.7 57.96C244.66 57.96 245.51 57.75 246.25 57.33C247.01 56.91 247.6 56.33 248.02 55.59C248.44 54.83 248.65 53.97 248.65 53.01C248.65 52.09 248.44 51.27 248.02 50.55C247.6 49.81 247.01 49.24 246.25 48.84C245.51 48.42 244.66 48.21 243.7 48.21C243.08 48.21 242.43 48.37 241.75 48.69C241.09 49.01 240.53 49.43 240.07 49.95L238.21 48.33ZM237.58 49.59L238.3 38.28H249.37V40.5H240.7L240.07 49.95L237.58 49.59Z" fill="black"/>
<path d="M243.82 248.05C244.76 248.05 245.59 247.84 246.31 247.42C247.05 247 247.62 246.41 248.02 245.65C248.44 244.89 248.65 244.04 248.65 243.1C248.65 242.14 248.44 241.28 248.02 240.52C247.62 239.76 247.05 239.17 246.31 238.75C245.59 238.33 244.76 238.12 243.82 238.12C242.92 238.12 242.1 238.33 241.36 238.75C240.64 239.17 240.08 239.76 239.68 240.52C239.28 241.28 239.08 242.14 239.08 243.1C239.08 244.06 239.28 244.92 239.68 245.68C240.1 246.42 240.67 247 241.39 247.42C242.11 247.84 242.92 248.05 243.82 248.05ZM236.59 243.1C236.59 241.74 236.97 240.38 237.73 239.02L243.82 228.28H246.7L242.23 236.08C242.87 235.96 243.42 235.9 243.88 235.9C245.3 235.9 246.55 236.21 247.63 236.83C248.73 237.45 249.59 238.3 250.21 239.38C250.83 240.46 251.14 241.7 251.14 243.1C251.14 244.5 250.83 245.74 250.21 246.82C249.59 247.9 248.73 248.75 247.63 249.37C246.53 249.97 245.28 250.27 243.88 250.27C242.48 250.27 241.22 249.97 240.1 249.37C239 248.75 238.14 247.9 237.52 246.82C236.9 245.74 236.59 244.5 236.59 243.1Z" fill="black"/>
</svg>
