<svg width="309" height="292" viewBox="0 0 309 292" fill="none" xmlns="http://www.w3.org/2000/svg">
<path d="M3.84 102.51L2.1 100.77L11.58 91.26L2.1 81.78L3.84 80.01L15.06 91.26L3.84 102.51Z" fill="black"/>
<path d="M73.64 60.03H71.15V41.1L67.61 43.38L66.38 41.4L71.15 38.34H73.64V60.03Z" fill="black"/>
<path d="M257.83 57.84C258.35 57.34 258.78 56.93 259.12 56.61C259.46 56.29 259.89 55.89 260.41 55.41C262.15 53.81 263.55 52.47 264.61 51.39C265.69 50.31 266.6 49.2 267.34 48.06C268.1 46.92 268.48 45.86 268.48 44.88C268.48 44 268.3 43.22 267.94 42.54C267.58 41.84 267.09 41.3 266.47 40.92C265.85 40.52 265.14 40.32 264.34 40.32C263.44 40.32 262.57 40.62 261.73 41.22C260.91 41.82 260.29 42.6 259.87 43.56L257.62 42.57C258.2 41.25 259.11 40.17 260.35 39.33C261.61 38.49 262.94 38.07 264.34 38.07C265.62 38.07 266.76 38.36 267.76 38.94C268.78 39.52 269.57 40.33 270.13 41.37C270.69 42.39 270.97 43.56 270.97 44.88C270.97 46.2 270.55 47.54 269.71 48.9C268.87 50.26 267.86 51.54 266.68 52.74C265.52 53.94 264.02 55.36 262.18 57C261.26 57.82 260.39 58.63 259.57 59.43L257.83 57.84ZM257.83 57.84H271.33V60.06H258.13L257.83 57.84Z" fill="black"/>
<path d="M268.78 238.81C269.72 239.37 270.46 240.12 271 241.06C271.54 242 271.81 242.94 271.81 243.88C271.81 245.1 271.51 246.19 270.91 247.15C270.31 248.11 269.47 248.86 268.39 249.4C267.31 249.94 266.08 250.21 264.7 250.21C263.32 250.21 262.09 249.94 261.01 249.4C259.93 248.84 259.09 248.08 258.49 247.12C257.89 246.16 257.59 245.06 257.59 243.82H260.08C260.08 244.62 260.28 245.34 260.68 245.98C261.08 246.6 261.62 247.09 262.3 247.45C263 247.81 263.8 247.99 264.7 247.99C265.6 247.99 266.4 247.82 267.1 247.48C267.82 247.12 268.37 246.63 268.75 246.01C269.15 245.37 269.35 244.65 269.35 243.85C269.35 243.09 269.15 242.41 268.75 241.81C268.37 241.21 267.83 240.74 267.13 240.4C266.43 240.06 265.64 239.89 264.76 239.89H263.17V237.67H264.76C265.58 237.67 266.31 237.52 266.95 237.22C267.61 236.92 268.12 236.5 268.48 235.96C268.86 235.4 269.05 234.77 269.05 234.07C269.05 232.97 268.66 232.08 267.88 231.4C267.1 230.7 266.1 230.35 264.88 230.35C264.08 230.35 263.36 230.51 262.72 230.83C262.08 231.15 261.58 231.6 261.22 232.18C260.88 232.74 260.71 233.39 260.71 234.13H258.22C258.22 232.97 258.5 231.94 259.06 231.04C259.64 230.12 260.43 229.41 261.43 228.91C262.43 228.39 263.58 228.13 264.88 228.13C266.16 228.13 267.3 228.38 268.3 228.88C269.32 229.38 270.11 230.08 270.67 230.98C271.23 231.88 271.51 232.9 271.51 234.04C271.51 234.9 271.26 235.77 270.76 236.65C270.28 237.53 269.62 238.25 268.78 238.81Z" fill="black"/>
<path d="M22 77.5C22 73.9 22 21.8333 22 1H181.5M61 130V188L124.5 291H307.5V188M61 130H22V105.5M61 130H169.5M181.5 1H307.5V188M181.5 1V77.5M307.5 188H169.5" stroke="black" stroke-width="2"/>
<path d="M91.1484 155.957C91.0916 155.452 90.8572 155.062 90.4453 154.785C90.0334 154.504 89.5149 154.364 88.8899 154.364C88.4425 154.364 88.0554 154.435 87.7287 154.577C87.402 154.716 87.1481 154.907 86.967 155.152C86.7894 155.394 86.7006 155.669 86.7006 155.978C86.7006 156.237 86.761 156.461 86.8817 156.649C87.006 156.837 87.1676 156.995 87.3665 157.123C87.5689 157.248 87.7855 157.352 88.0163 157.438C88.2472 157.519 88.4691 157.587 88.6822 157.64L89.7475 157.917C90.0955 158.002 90.4524 158.118 90.8182 158.263C91.1839 158.409 91.5231 158.6 91.8356 158.838C92.1481 159.076 92.4002 159.371 92.592 159.723C92.7873 160.074 92.8849 160.495 92.8849 160.985C92.8849 161.603 92.7251 162.152 92.4055 162.631C92.0895 163.11 91.6296 163.489 91.0259 163.766C90.4258 164.043 89.6996 164.181 88.8473 164.181C88.0305 164.181 87.3239 164.051 86.7273 163.792C86.1307 163.533 85.6637 163.165 85.3263 162.69C84.989 162.21 84.8026 161.642 84.767 160.985H86.4183C86.4503 161.379 86.5781 161.708 86.8018 161.971C87.0291 162.23 87.3185 162.423 87.6701 162.551C88.0252 162.675 88.4141 162.738 88.8366 162.738C89.3018 162.738 89.7156 162.665 90.0778 162.519C90.4435 162.37 90.7312 162.164 90.9407 161.901C91.1502 161.635 91.255 161.324 91.255 160.969C91.255 160.646 91.1626 160.381 90.978 160.175C90.7969 159.969 90.5501 159.799 90.2376 159.664C89.9286 159.529 89.5788 159.41 89.1882 159.307L87.8991 158.956C87.0256 158.718 86.3331 158.368 85.8217 157.906C85.3139 157.445 85.06 156.834 85.06 156.074C85.06 155.445 85.2305 154.897 85.5714 154.428C85.9123 153.959 86.3739 153.595 86.9563 153.336C87.5387 153.073 88.1957 152.942 88.9272 152.942C89.6658 152.942 90.3175 153.071 90.8821 153.331C91.4503 153.59 91.8977 153.947 92.2244 154.401C92.5511 154.852 92.7216 155.371 92.7358 155.957H91.1484ZM94.724 167.068V155.818H96.2794V157.145H96.4126C96.5049 156.974 96.6381 156.777 96.8121 156.553C96.9861 156.33 97.2275 156.134 97.5365 155.967C97.8454 155.797 98.2538 155.712 98.7616 155.712C99.4221 155.712 100.012 155.879 100.53 156.212C101.049 156.546 101.455 157.027 101.75 157.656C102.048 158.284 102.197 159.041 102.197 159.925C102.197 160.809 102.05 161.567 101.755 162.2C101.46 162.828 101.056 163.313 100.541 163.654C100.026 163.991 99.4381 164.16 98.7776 164.16C98.2805 164.16 97.8738 164.076 97.5578 163.909C97.2453 163.743 97.0003 163.547 96.8227 163.324C96.6452 163.1 96.5084 162.901 96.4126 162.727H96.3167V167.068H94.724ZM96.2847 159.909C96.2847 160.484 96.3682 160.989 96.5351 161.422C96.702 161.855 96.9434 162.194 97.2595 162.439C97.5756 162.681 97.9626 162.801 98.4207 162.801C98.8966 162.801 99.2943 162.675 99.6139 162.423C99.9335 162.168 100.175 161.821 100.338 161.385C100.505 160.948 100.589 160.456 100.589 159.909C100.589 159.369 100.507 158.885 100.344 158.455C100.184 158.025 99.9424 157.686 99.6192 157.438C99.2996 157.189 98.9001 157.065 98.4207 157.065C97.9591 157.065 97.5684 157.184 97.2488 157.422C96.9328 157.659 96.6931 157.991 96.5297 158.418C96.3664 158.844 96.2847 159.341 96.2847 159.909ZM107.508 164.165C106.702 164.165 106.008 163.993 105.425 163.648C104.847 163.3 104.399 162.812 104.083 162.184C103.771 161.551 103.614 160.811 103.614 159.962C103.614 159.124 103.771 158.386 104.083 157.746C104.399 157.107 104.839 156.608 105.404 156.25C105.972 155.891 106.636 155.712 107.396 155.712C107.858 155.712 108.305 155.788 108.739 155.941C109.172 156.093 109.561 156.333 109.905 156.66C110.25 156.987 110.521 157.411 110.72 157.933C110.919 158.451 111.018 159.082 111.018 159.824V160.388H104.514V159.195H109.458C109.458 158.776 109.372 158.405 109.202 158.082C109.032 157.755 108.792 157.498 108.483 157.31C108.177 157.121 107.819 157.027 107.407 157.027C106.959 157.027 106.569 157.137 106.235 157.358C105.905 157.574 105.649 157.858 105.468 158.21C105.29 158.558 105.202 158.936 105.202 159.344V160.277C105.202 160.824 105.297 161.289 105.489 161.672C105.685 162.056 105.956 162.349 106.304 162.551C106.652 162.75 107.059 162.849 107.524 162.849C107.826 162.849 108.101 162.807 108.35 162.722C108.598 162.633 108.813 162.501 108.994 162.327C109.175 162.153 109.314 161.939 109.41 161.683L110.917 161.955C110.796 162.398 110.58 162.787 110.267 163.121C109.958 163.451 109.57 163.709 109.101 163.893C108.636 164.075 108.105 164.165 107.508 164.165ZM116.232 164.165C115.44 164.165 114.758 163.986 114.186 163.627C113.618 163.265 113.181 162.766 112.876 162.13C112.571 161.495 112.418 160.767 112.418 159.946C112.418 159.115 112.574 158.382 112.887 157.746C113.199 157.107 113.64 156.608 114.208 156.25C114.776 155.891 115.445 155.712 116.216 155.712C116.837 155.712 117.391 155.827 117.878 156.058C118.364 156.285 118.757 156.605 119.055 157.017C119.357 157.429 119.536 157.91 119.593 158.46H118.043C117.958 158.077 117.762 157.746 117.457 157.469C117.155 157.192 116.75 157.054 116.243 157.054C115.799 157.054 115.41 157.171 115.076 157.406C114.746 157.636 114.488 157.967 114.304 158.396C114.119 158.822 114.027 159.327 114.027 159.909C114.027 160.506 114.117 161.021 114.298 161.454C114.479 161.887 114.735 162.223 115.065 162.461C115.399 162.699 115.792 162.817 116.243 162.817C116.544 162.817 116.818 162.762 117.063 162.652C117.311 162.539 117.519 162.377 117.686 162.168C117.857 161.958 117.975 161.706 118.043 161.411H119.593C119.536 161.94 119.364 162.413 119.076 162.828C118.789 163.244 118.403 163.57 117.92 163.808C117.441 164.046 116.878 164.165 116.232 164.165ZM121.296 164V155.818H122.889V164H121.296ZM122.101 154.556C121.824 154.556 121.586 154.463 121.387 154.279C121.191 154.091 121.094 153.867 121.094 153.608C121.094 153.345 121.191 153.121 121.387 152.936C121.586 152.748 121.824 152.654 122.101 152.654C122.378 152.654 122.614 152.748 122.809 152.936C123.008 153.121 123.107 153.345 123.107 153.608C123.107 153.867 123.008 154.091 122.809 154.279C122.614 154.463 122.378 154.556 122.101 154.556ZM127.413 164.181C126.894 164.181 126.425 164.085 126.006 163.893C125.587 163.698 125.255 163.416 125.01 163.047C124.769 162.677 124.648 162.224 124.648 161.688C124.648 161.227 124.737 160.847 124.914 160.548C125.092 160.25 125.332 160.014 125.634 159.84C125.935 159.666 126.273 159.534 126.646 159.446C127.018 159.357 127.398 159.289 127.786 159.243C128.276 159.186 128.673 159.14 128.979 159.105C129.284 159.066 129.506 159.004 129.645 158.918C129.783 158.833 129.852 158.695 129.852 158.503V158.466C129.852 158 129.721 157.64 129.458 157.384C129.199 157.129 128.812 157.001 128.297 157.001C127.761 157.001 127.338 157.12 127.029 157.358C126.724 157.592 126.512 157.853 126.395 158.141L124.898 157.8C125.076 157.303 125.335 156.901 125.676 156.596C126.021 156.287 126.417 156.063 126.864 155.925C127.311 155.783 127.782 155.712 128.276 155.712C128.602 155.712 128.949 155.751 129.314 155.829C129.684 155.903 130.028 156.042 130.348 156.244C130.671 156.447 130.935 156.736 131.141 157.113C131.347 157.485 131.45 157.97 131.45 158.567V164H129.895V162.881H129.831C129.728 163.087 129.574 163.29 129.368 163.489C129.162 163.687 128.897 163.853 128.574 163.984C128.251 164.115 127.864 164.181 127.413 164.181ZM127.759 162.903C128.199 162.903 128.576 162.816 128.888 162.642C129.204 162.468 129.444 162.24 129.607 161.96C129.774 161.676 129.858 161.372 129.858 161.049V159.994C129.801 160.051 129.691 160.104 129.527 160.154C129.368 160.2 129.185 160.241 128.979 160.277C128.773 160.309 128.572 160.339 128.377 160.367C128.181 160.392 128.018 160.413 127.887 160.431C127.578 160.47 127.295 160.536 127.04 160.628C126.788 160.721 126.585 160.854 126.433 161.028C126.283 161.198 126.209 161.425 126.209 161.71C126.209 162.104 126.354 162.402 126.646 162.604C126.937 162.803 127.308 162.903 127.759 162.903ZM135.164 153.091V164H133.572V153.091H135.164Z" fill="black"/>
</svg>
